<svg width="25" height="25" viewBox="0 0 25 25" fill="none" xmlns="http://www.w3.org/2000/svg">
<path d="M8.9001 6.87871C9.00516 6.79992 9.12471 6.74259 9.25192 6.71C9.37913 6.67741 9.51152 6.67019 9.64152 6.68876C9.77152 6.70733 9.8966 6.75133 10.0096 6.81824C10.1226 6.88514 10.2213 6.97365 10.3001 7.07871C10.3789 7.18377 10.4362 7.30332 10.4688 7.43053C10.5014 7.55774 10.5086 7.69013 10.49 7.82013C10.4715 7.95013 10.4275 8.07521 10.3606 8.1882C10.2937 8.3012 10.2052 8.39992 10.1001 8.47871C8.5361 9.65171 7.6401 10.7927 7.1271 11.7887C7.83147 11.6074 8.57483 11.65 9.25386 11.9107C9.93289 12.1713 10.5138 12.637 10.916 13.2431C11.3181 13.8491 11.5215 14.5654 11.4978 15.2923C11.474 16.0193 11.2244 16.7208 10.7836 17.2993C10.3429 17.8779 9.73277 18.3047 9.0382 18.5206C8.34362 18.7364 7.59907 18.7305 6.90801 18.5036C6.21696 18.2768 5.61374 17.8403 5.18221 17.2548C4.75067 16.6693 4.51226 15.9639 4.5001 15.2367C4.37339 14.0087 4.54775 12.7682 5.0081 11.6227C5.6051 10.1167 6.7721 8.47471 8.9001 6.87871ZM17.9001 6.87871C18.0052 6.79992 18.1247 6.74259 18.2519 6.71C18.3791 6.67741 18.5115 6.67019 18.6415 6.68876C18.7715 6.70733 18.8966 6.75133 19.0096 6.81824C19.1226 6.88514 19.2213 6.97365 19.3001 7.07871C19.3789 7.18377 19.4362 7.30332 19.4688 7.43053C19.5014 7.55774 19.5086 7.69013 19.4901 7.82013C19.4715 7.95013 19.4275 8.07521 19.3606 8.1882C19.2937 8.3012 19.2052 8.39992 19.1001 8.47871C17.5361 9.65171 16.6401 10.7927 16.1271 11.7887C16.8315 11.6074 17.5748 11.65 18.2539 11.9107C18.9329 12.1713 19.5138 12.637 19.916 13.2431C20.3181 13.8491 20.5215 14.5654 20.4978 15.2923C20.474 16.0193 20.2244 16.7208 19.7836 17.2993C19.3429 17.8779 18.7328 18.3047 18.0382 18.5206C17.3436 18.7364 16.5991 18.7305 15.908 18.5036C15.217 18.2768 14.6137 17.8403 14.1822 17.2548C13.7507 16.6693 13.5123 15.9639 13.5001 15.2367C13.3734 14.0087 13.5477 12.7682 14.0081 11.6227C14.6061 10.1167 15.7721 8.47471 17.9001 6.87871Z" fill="#101014"/>
</svg>
