<svg width="35" height="35" viewBox="0 0 35 35" fill="none" xmlns="http://www.w3.org/2000/svg">
<path d="M23.8935 23.4371C23.7529 23.5778 23.5621 23.6568 23.3632 23.6568C23.1643 23.6568 22.9735 23.5778 22.8328 23.4371L17.5295 18.1338L12.2262 23.4371C12.0856 23.5778 11.8948 23.6568 11.6959 23.6568C11.497 23.6568 11.3062 23.5778 11.1656 23.4371C11.0249 23.2964 10.9459 23.1057 10.9459 22.9068C10.9459 22.7079 11.0249 22.5171 11.1656 22.3764L16.4689 17.0731L11.1656 11.7698C11.0249 11.6292 10.9459 11.4384 10.9459 11.2395C10.9459 11.0406 11.0249 10.8498 11.1656 10.7092C11.3062 10.5685 11.497 10.4895 11.6959 10.4895C11.8948 10.4895 12.0856 10.5685 12.2262 10.7092L17.5295 16.0125L22.8328 10.7092C22.9735 10.5685 23.1643 10.4895 23.3632 10.4895C23.5621 10.4895 23.7529 10.5685 23.8935 10.7092C24.0342 10.8498 24.1132 11.0406 24.1132 11.2395C24.1132 11.4384 24.0342 11.6292 23.8935 11.7698L18.5902 17.0731L23.8935 22.3764C24.0342 22.5171 24.1132 22.7079 24.1132 22.9068C24.1132 23.1057 24.0342 23.2964 23.8935 23.4371Z" fill="#101014"/>
</svg>
