<svg width="25" height="25" viewBox="0 0 25 25" fill="none" xmlns="http://www.w3.org/2000/svg">
<path d="M21.5 12.5439C21.5 12.7429 21.421 12.9336 21.2803 13.0743C21.1397 13.2149 20.9489 13.2939 20.75 13.2939H13.25V20.7939C13.25 20.9929 13.171 21.1836 13.0303 21.3243C12.8897 21.4649 12.6989 21.5439 12.5 21.5439C12.3011 21.5439 12.1103 21.4649 11.9697 21.3243C11.829 21.1836 11.75 20.9929 11.75 20.7939V13.2939L4.25 13.2939C4.05109 13.2939 3.86032 13.2149 3.71967 13.0743C3.57902 12.9336 3.5 12.7429 3.5 12.5439C3.5 12.345 3.57902 12.1543 3.71967 12.0136C3.86032 11.873 4.05109 11.7939 4.25 11.7939L11.75 11.7939L11.75 4.29395C11.75 4.09503 11.829 3.90427 11.9697 3.76362C12.1103 3.62296 12.3011 3.54395 12.5 3.54395C12.6989 3.54395 12.8897 3.62296 13.0303 3.76362C13.171 3.90427 13.25 4.09503 13.25 4.29395L13.25 11.7939H20.75C20.9489 11.7939 21.1397 11.873 21.2803 12.0136C21.421 12.1543 21.5 12.345 21.5 12.5439Z" fill="#101014"/>
</svg>
